<svg xmlns="http://www.w3.org/2000/svg" viewBox="0 0 32 28"><defs><style>.cls-1{fill:#ff566d;}</style></defs><g id="Layer_2" data-name="Layer 2"><g id="layer_1-2" data-name="layer 1"><path class="cls-1" d="M7,12H3.41l.3-.29a1,1,0,0,0-1.42-1.42l-2,2h0a1,1,0,0,0-.28.63H0a1.34,1.34,0,0,0,0,.2H0a1,1,0,0,0,.24.53l0,.05,2,2a1,1,0,0,0,1.42,0,1,1,0,0,0,0-1.42L3.41,14H8V12Z"/><path class="cls-1" d="M10.34,6.93,10,6.59,9,5.54,6.41,3H7A1,1,0,0,0,7,1H4a1,1,0,0,0-.65.25h0a.86.86,0,0,0-.13.14h0A1,1,0,0,0,3,1.93V5A1,1,0,0,0,5,5V4.42L7.54,7,9,8.42Z"/><path class="cls-1" d="M8,18.58l-.46.47L5,21.59V21a1,1,0,1,0-2,0v3.07a1,1,0,0,0,.21.54h0a.86.86,0,0,0,.13.14h0A1,1,0,0,0,4,25H7a1,1,0,0,0,0-2H6.41L9,20.46,9,20.41l.27-.27Z"/><path class="cls-1" d="M32,12.93a1,1,0,0,0-.28-.63h0l-2-2a1,1,0,0,0-1.42,1.42l.3.29H24v2h4.59l-.3.29a1,1,0,0,0,0,1.42,1,1,0,0,0,1.42,0l2-2,.05-.05a1,1,0,0,0,.24-.53h0a1.34,1.34,0,0,0,0-.2Z"/><path class="cls-1" d="M23,8.42,24.46,7,27,4.42V5a1,1,0,1,0,2,0V1.93a1,1,0,0,0-.21-.54h0a.86.86,0,0,0-.13-.14h0A1,1,0,0,0,28,1H25a1,1,0,0,0,0,2h.59L23.05,5.54,21.66,6.93l0,.07Z"/><path class="cls-1" d="M23,20.41l.05.05L25.59,23H25a1,1,0,0,0,0,2h3a1,1,0,0,0,.65-.25h0a.86.86,0,0,0,.13-.14h0a1,1,0,0,0,.21-.54V21a1,1,0,0,0-2,0v.59l-2.54-2.54,0-.05Z"/><path class="cls-1" d="M19.73,8.3a5,5,0,1,0-7.46,0C10.24,10,9.32,12.13,9,16c0,1.68,0,3.57,2.17,3.94l.86,4.3C12.6,26.52,14.16,28,16,28h0c1.84,0,3.4-1.47,4-3.8l.85-4.26c2.17-.37,2.17-2.27,2.17-4C22.68,12.12,21.76,10,19.73,8.3ZM16,2a3,3,0,1,1-3,3A3,3,0,0,1,16,2Zm3,16.8-1,5C17.69,25.12,16.89,26,16,26s-1.69-.88-2-2.2l-1-5a1,1,0,0,0-1-.8c-1,0-1,0-1-1.92.31-3.76,1.2-5.16,2.62-6.3a.77.77,0,0,0,.18-.18l.07-.09a4.29,4.29,0,0,0,.63.23L15.33,11,14,14.33,16,17l2-2.67L16.67,11l.83-1.26a4.29,4.29,0,0,0,.63-.23l.07.09a.77.77,0,0,0,.18.18C19.8,10.92,20.69,12.32,21,16c0,2,0,2-1,2A1,1,0,0,0,19,18.8Z"/></g></g></svg>