<svg xmlns="http://www.w3.org/2000/svg" viewBox="0 0 32 30.08"><defs><style>.cls-1{fill:#7500ff;}</style></defs><g id="Layer_2" data-name="Layer 2"><g id="layer_1-2" data-name="layer 1"><path class="cls-1" d="M8,20.07a12.54,12.54,0,0,1-5.49-1A1.32,1.32,0,0,1,2,18.67c.34-4.37,1.21-5.11,3-6.58l.45-.38A6.17,6.17,0,0,0,8,12.28a6.79,6.79,0,0,0,1-.09V10.13a3.81,3.81,0,0,1-1,.15,4.14,4.14,0,1,1,4.14-4.14,3.67,3.67,0,0,1-.12.94h2a5.86,5.86,0,0,0,.08-.94A6.14,6.14,0,1,0,3.69,10.53l0,0c-2.08,1.76-3.27,3-3.66,8a2.55,2.55,0,0,0,1.51,2.22A15,15,0,0,0,8,22.08Z"/><path class="cls-1" d="M8,4a2.11,2.11,0,0,1,2.11,2.11.5.5,0,0,0,.5.5.5.5,0,0,0,.5-.5A3.11,3.11,0,0,0,8,3,.5.5,0,0,0,8,4Z"/><path class="cls-1" d="M20,7.07a4.08,4.08,0,0,1-.11-.93A4.14,4.14,0,1,1,24,10.28a3.93,3.93,0,0,1-1-.12v2a6.37,6.37,0,0,0,1,.08,6,6,0,0,0,2.61-.59l.46.4c1.74,1.47,2.61,2.21,2.95,6.51,0,.1-.16.29-.51.49a12.54,12.54,0,0,1-5.49,1v2a15,15,0,0,0,6.49-1.26A2.57,2.57,0,0,0,32,18.52c-.39-5-1.58-6.2-3.66-8l-.05,0A6.14,6.14,0,1,0,17.84,6.14a5.86,5.86,0,0,0,.08.94Z"/><path class="cls-1" d="M27.11,6.12A3.11,3.11,0,0,0,24,3a.5.5,0,0,0,0,1,2.11,2.11,0,0,1,2.11,2.11.5.5,0,0,0,.5.5A.5.5,0,0,0,27.11,6.12Z"/><path class="cls-1" d="M26.39,14.48c1.48.74,1.48,3.15,1.48,3.94a.5.5,0,0,0,.5.5.5.5,0,0,0,.5-.5c0-.94,0-3.81-2-4.83a.5.5,0,0,0-.67.22A.49.49,0,0,0,26.39,14.48Z"/><path class="cls-1" d="M16,12a2.11,2.11,0,0,1,2.11,2.11.5.5,0,0,0,.5.5.5.5,0,0,0,.5-.5A3.11,3.11,0,0,0,16,11a.5.5,0,0,0,0,1Z"/><path class="cls-1" d="M18.84,21.59a.5.5,0,0,0-.67.22.49.49,0,0,0,.22.67c1.48.74,1.48,3.15,1.48,3.94a.5.5,0,0,0,.5.5.5.5,0,0,0,.5-.5C20.87,25.48,20.87,22.61,18.84,21.59Z"/><path class="cls-1" d="M20.34,18.56l-.05,0a6.14,6.14,0,1,0-8.6,0l0,0c-2.08,1.76-3.27,3-3.66,8a2.55,2.55,0,0,0,1.51,2.22A14.25,14.25,0,0,0,16,30.08a14.22,14.22,0,0,0,6.49-1.26A2.57,2.57,0,0,0,24,26.52C23.61,21.55,22.42,20.32,20.34,18.56Zm-.22-4.42A4.14,4.14,0,1,1,16,10,4.14,4.14,0,0,1,20.12,14.14Zm-9.61,13a1.32,1.32,0,0,1-.51-.42c.34-4.37,1.21-5.11,2.95-6.58l.45-.38.25.11,1.45,2-1.75,4,1.81,2.21A11.15,11.15,0,0,1,10.51,27.09Zm11,0a11.32,11.32,0,0,1-4.69,1l1.81-2.21-1.75-4,1.45-2,.28-.13.46.4c1.74,1.47,2.61,2.21,2.95,6.51C22,26.7,21.84,26.89,21.49,27.09Z"/></g></g></svg>